# xmcd
#
# Track frame offsets:
#	150
#	17963
#	32038
#	45409
#	57770
#	72670
#	85550
#	99001
#	114614
#	129957
#	156913
#	173258
#	185997
#	202582
#	216539
#	230048
#	244771
#	259223
#
# Disc length: 3619 seconds
#
# Revision: 1
# Processed by: cddbd v1.5.2PL0 Copyright (c) Steve Scherf et al.
# Submitted via: audiograbber 1.83.01
#
DISCID=f20e2112
DTITLE=Gemischt - Soul Christmas
DYEAR=2004
DGENRE=Weihnachtsmusik
TTITLE0=The Supremes - White Christmas
TTITLE1=James Brown - Soulful Christmas
TTITLE2=Jackson 5 - Give Love On Christmas Day
TTITLE3=Stevie Wonder - One Little Christmas Tree
TTITLE4=The Temptations - My Christmas Tree
TTITLE5=Stevie Wonder - Someday At Christmas
TTITLE6=The Supremes - Silver Bells
TTITLE7=Marvin Gaye - I Want To Come Home For Christmas
TTITLE8=The Temptations - The Little Drummer Boy
TTITLE9=Luther Vandross - My Favorite Things
TTITLE10=Vanessa Williams - Star Bright
TTITLE11=The Temptations - Christmas Everyday
TTITLE12=Patti Labelle - I´m Christmasing Whit You
TTITLE13=The Supremes - Twinkle Twinkle Little Me
TTITLE14=James Brown - Santa Claus Go Straight To The Ghetto
TTITLE15=Marvin Gaye - Christmas In The City
TTITLE16=The Supremes - My Christmas Tree
TTITLE17=Ella Fitzgerald/Louis Jordan - Baby It´s Cold Outside
EXTD=
EXTT0=
EXTT1=
EXTT2=
EXTT3=
EXTT4=
EXTT5=
EXTT6=
EXTT7=
EXTT8=
EXTT9=
EXTT10=
EXTT11=
EXTT12=
EXTT13=
EXTT14=
EXTT15=
EXTT16=
EXTT17=
PLAYORDER=
